<?xml version="1.0" encoding="UTF-8" standalone="no"?>
<!-- Created with Inkscape (http://www.inkscape.org/) -->

<svg
   width="11in"
   height="8.5in"
   viewBox="0 0 279.4 215.9"
   version="1.1"
   id="svg1"
   xml:space="preserve"
   inkscape:version="1.4.2 (f4327f4, 2025-05-13)"
   sodipodi:docname="logo_vector_rekcce_master_002.svg"
   inkscape:export-filename="logo_vector_rekcce_master_002C.pdf"
   inkscape:export-xdpi="300"
   inkscape:export-ydpi="300"
   xmlns:inkscape="http://www.inkscape.org/namespaces/inkscape"
   xmlns:sodipodi="http://sodipodi.sourceforge.net/DTD/sodipodi-0.dtd"
   xmlns="http://www.w3.org/2000/svg"
   xmlns:svg="http://www.w3.org/2000/svg"><sodipodi:namedview
     id="namedview1"
     pagecolor="#ffffff"
     bordercolor="#666666"
     borderopacity="1.0"
     inkscape:showpageshadow="2"
     inkscape:pageopacity="0.0"
     inkscape:pagecheckerboard="0"
     inkscape:deskcolor="#d1d1d1"
     inkscape:document-units="mm"
     inkscape:zoom="1.32"
     inkscape:cx="577.65152"
     inkscape:cy="406.43939"
     inkscape:window-width="2560"
     inkscape:window-height="1494"
     inkscape:window-x="-11"
     inkscape:window-y="-11"
     inkscape:window-maximized="1"
     inkscape:current-layer="g97"
     inkscape:export-bgcolor="#ffffffff"
     showgrid="false" /><defs
     id="defs1" /><g
     inkscape:label="Capa 1"
     inkscape:groupmode="layer"
     id="layer1"
     style="display:inline"><g
       id="g113"
       transform="translate(0.728829,-16.03436)"
       style="display:none"
       inkscape:label="corona sola"
       sodipodi:insensitive="true"><path
         style="display:inline;opacity:1;fill:#020b13;fill-opacity:1"
         d="m 84.138149,78.554071 c 7.599921,7.286521 8.536707,-2.236858 16.993081,-7.305799 7.45011,-4.321861 11.987,8.653648 15.84619,8.237138 11.28446,-14.305958 31.86822,28.44607 17.92632,34.67514 -14.72374,1.99965 -44.385357,4.59881 -55.838523,2.64428 -2.773896,-0.47337 -6.098616,-4.49057 -7.487348,-6.19464 -7.845954,-9.62753 6.231843,-38.123588 12.56028,-32.056119 z m 37.309281,24.318969 c 1.48221,-0.18403 1.95818,-1.54914 2.16645,-2.96148 0.20083,-1.361915 -0.42996,-4.019858 -0.84781,-4.59823 -0.73595,-1.018657 -2.95515,4.78968 -6.21774,4.220512 -2.11143,-0.368347 -4.65547,-2.30872 -5.86739,-3.82596 -11.176662,-13.992404 -9.01455,0.333718 -17.87654,4.834788 -1.520011,0.69311 -3.029714,-0.14754 -4.245283,-1.163698 -2.416891,-1.919963 -4.357941,-4.356937 -2.892413,0.925148 0.773665,2.4259 2.552107,4.52638 3.336329,4.52192 7.131605,-0.0406 12.991367,-0.21554 18.755657,-0.61033 4.44033,-0.30411 8.824,-0.73866 13.68874,-1.34267 z"
         id="path108"
         sodipodi:nodetypes="scccssssssssssssss"
         inkscape:label="halo corona" /><path
         style="display:inline;fill:#ffcc00;fill-opacity:1;stroke:none;stroke-width:1.5;stroke-dasharray:none;stroke-dashoffset:0"
         d="m 83.351748,113.43956 c -19.235071,-1.59464 -5.96886,-36.025779 1.493682,-29.377019 7.497288,6.99532 9.226012,-2.86317 17.93024,-8.17845 4.58627,-2.70234 13.47589,11.28918 15.77428,7.40367 9.73201,-14.04454 27.3665,28.571909 9.07779,28.006219 0,0 -29.76749,1.96289 -44.275992,2.14558 z m 37.711982,-8.01235 c 6.76258,0.81766 4.75883,-13.048359 0.76496,-12.082629 -2.03365,1.32057 -3.69892,5.33924 -6.45614,3.61829 -6.20236,-3.8713 -10.00778,-15.80665 -17.069137,-6.41857 -1.873888,2.428 -3.470012,5.35567 -6.245239,6.84699 -2.979928,0.98168 -4.28631,-2.65528 -6.552715,-3.43218 -3.190455,1.22489 -2.468979,9.462789 2.637286,12.808269 10.99452,0.55569 21.953915,-0.84129 32.920985,-1.34017 z"
         id="path112-2-7"
         inkscape:label="corona"
         sodipodi:nodetypes="ccccccccsccccc" /><path
         style="display:inline;fill:none;stroke:#ffffff;stroke-width:2.20003;stroke-linecap:butt;stroke-linejoin:miter;stroke-dasharray:none;stroke-opacity:1"
         d="m 87.479126,110.10757 c 11.927901,-0.39418 26.019714,-1.02087 37.787294,-1.70029 9.66698,-1.38353 2.44964,-26.632327 -3.33881,-20.215637 -9.28557,10.91201 -12.78389,-15.723005 -23.889058,-2.913961 -7.681757,8.787744 -9.590808,4.860157 -14.341243,3.988469 -6.61752,0.776629 -7.679406,21.236229 3.781817,20.841419 z"
         id="path113"
         inkscape:label="luz corona"
         sodipodi:nodetypes="cccccc" /></g><g
       id="g97"
       transform="matrix(0.900516,0,0,0.900516,8.904276,6.2742725)"
       style="display:inline;opacity:1"
       inkscape:label="cuerpo y corona"><path
         style="display:inline;opacity:1;fill:#000000;fill-opacity:1;fill-rule:evenodd;stroke:none;stroke-width:2.04628;stroke-dasharray:none;stroke-dashoffset:0;stroke-opacity:1"
         d="m 66.189576,200.54483 c -3.211825,-1.01367 -3.138084,-0.74823 -1.748214,-6.29292 7.813812,-31.17222 32.543868,-74.8706 31.812623,-78.66048 -1.368677,-7.09366 -46.407481,-5.51695 -58.30514,-17.105628 -12.545323,-12.219524 -1.068949,-33.086157 9.587968,-40.398321 11.911449,-8.17293 -5.96509,15.709791 14.332582,22.399879 14.67453,4.538902 30.454156,7.205991 45.864655,6.221335 12.28825,-3.438629 29.1027,-40.212656 39.85925,-41.825695 9.80766,-1.470753 15.45476,16.369585 43.49209,43.635193 38.41964,-0.809896 48.33026,-2.013985 55.079,-9.485127 6.80763,-7.536343 -0.10558,-25.719429 4.01427,-24.079922 12.01019,4.779489 20.66799,28.488499 16.29627,38.376493 -9.50233,21.492483 -59.93349,19.288263 -59.93349,20.440053 0,0.70368 26.07388,45.70923 41.57429,81.95902 2.71199,6.34237 2.64546,6.13325 1.84243,5.79075 -43.09137,-18.37927 -134.69669,13.73365 -183.768584,-0.97463 z"
         id="path106"
         inkscape:label="cuerpo interno"
         sodipodi:nodetypes="sssssssscsssssss" /><path
         style="display:inline;opacity:1;fill:#000000;fill-opacity:1;fill-rule:evenodd;stroke:none;stroke-width:2.04628;stroke-dasharray:none;stroke-dashoffset:0;stroke-opacity:1"
         d="M 42.938529,225.62406 C 22.80146,212.37112 61.774784,133.78495 61.030248,133.04041 60.075165,132.08533 37.638454,130.78629 24.809385,123.74742 -26.628702,95.525122 55.48469,-9.4069951 72.669136,48.279062 c 1.990383,6.681472 3.60316,10.718723 4.654215,11.650842 4.388209,3.891669 31.439979,5.765754 26.314699,-0.360599 -19.192225,-22.940826 9.26966,-56.3549105 15.21616,-50.8823384 13.44944,12.3775344 14.80647,-6.4728858 26.54869,-11.4309325 9.57282,-4.0420345 19.42498,16.1088689 22.09603,12.7060893 16.02557,-20.4156804 45.59319,41.5252046 26.82445,49.7634676 7.84257,13.840526 31.87872,8.464599 32.50322,3.242279 4.36332,-36.487819 26.77844,-34.047431 38.82576,-24.301538 20.29738,16.419921 38.60486,72.608148 -2.66963,90.402538 -10.48753,4.52142 -13.3751,2.61208 -14.67354,5.74683 -0.174,0.42007 45.88638,102.078 32.39284,94.2968 -23.23676,-13.3997 -217.407225,9.90877 -237.763501,-3.48844 z m 226.310911,-8.74105 c -7.67556,-33.60187 -40.10352,-88.40664 -37.17017,-89.49161 2.59103,-0.95836 17.28786,-3.12434 26.46227,-6.76847 52.6045,-20.894882 -9.69734,-108.861549 -19.68491,-67.93251 -1.63683,6.707738 -1.62998,15.318584 -3.69778,20.502213 -0.98514,2.46957 -30.75283,5.604266 -37.22718,2.549072 -8.93338,-4.348156 -20.90096,-19.9991 -21.93854,-21.553133 C 167.75129,41.84438 161.0533,35.155236 154.87636,33.099682 142.25565,28.899784 131.97553,40.47718 122.32755,54.939562 116.99343,62.935424 109.52908,69.820106 104.4917,72.350844 99.399777,74.908993 75.165634,72.569972 67.405823,67.554571 63.608804,65.100435 67.070199,62.864495 64.764116,53.886821 53.718632,10.886323 -3.046115,94.421968 27.252854,114.53935 c 6.816917,4.52618 23.039784,7.65751 48.449731,10.72435 -19.198037,40.51352 -35.768048,82.29751 -25.687857,91.36047 42.441654,13.64646 138.691982,-12.00267 219.234712,0.25884 z"
         id="path107"
         inkscape:label="contorno externo"
         sodipodi:nodetypes="sssssssssssssssscssssssssssssscc" /><path
         style="opacity:1;fill:#ffffff;fill-opacity:1;fill-rule:evenodd;stroke:none;stroke-width:2.19233;stroke-dasharray:none;stroke-dashoffset:0;stroke-opacity:1"
         d="m 70.812079,220.07642 c -4.846346,-0.37839 -12.230344,-1.49233 -16.283628,-2.45651 -4.225375,-1.00512 -4.530944,-1.14909 -5.46944,-2.57704 -5.737786,-8.73022 1.933454,-35.86176 23.077745,-81.62106 2.037281,-4.40897 3.633513,-8.08695 3.547178,-8.17328 -0.08634,-0.0863 -3.688223,-0.63239 -8.0042,-1.21346 C 37.706649,119.9997 27.262621,116.60684 22.400349,109.32553 19.633456,105.18207 18.80861,101.90514 18.855104,95.241048 18.913548,86.864366 20.710429,80.014291 25.430456,70.174475 31.464068,57.596236 40.01605,47.487686 47.9504,43.555616 c 2.508018,-1.242912 3.477003,-1.502321 5.593369,-1.497406 1.532419,0.0035 3.058701,0.270474 3.802796,0.665023 4.742976,2.514932 8.079309,10.3969 8.079309,19.087105 0,4.827215 0.435166,5.503874 4.660634,7.246971 7.655849,3.158209 23.194496,5.313576 30.715592,4.26056 4.27533,-0.598584 6.93363,-2.211569 12.53287,-7.604604 4.34639,-4.186324 6.01993,-6.239697 12.20004,-14.96903 6.48087,-9.154155 13.52794,-15.596942 19.13462,-17.493828 2.92058,-0.988108 7.30251,-0.920834 10.31967,0.158429 5.69971,2.038831 11.46883,7.60888 19.19785,18.535404 9.42697,13.326905 20.13032,23.409773 26.19126,24.672918 1.66963,0.347964 5.1583,0.428422 11.51083,0.265476 10.61413,-0.272259 18.15951,-1.235417 22.27335,-2.843162 1.46948,-0.574297 2.06612,-2.605058 3.20492,-10.908495 1.85573,-13.530874 3.57443,-17.900821 7.91039,-20.112861 10.16907,-5.187868 28.09805,15.343446 32.95015,37.732733 1.10015,5.0765 1.01908,14.364894 -0.16321,18.697286 -2.31922,8.498655 -7.65099,14.960185 -15.81132,19.161645 -4.22101,2.17324 -10.9245,4.32298 -18.87569,6.05324 -3.19029,0.69424 -6.99022,1.52357 -8.44428,1.84296 -1.45406,0.31939 -2.82316,0.76012 -3.04244,0.9794 -0.59483,0.59483 1.83609,6.33535 8.23028,19.43545 14.29341,29.28364 20.31394,42.94437 25.06494,56.87299 2.02726,5.94336 3.84669,12.39351 3.57309,12.66712 -0.0778,0.0778 -2.93058,-0.21298 -6.33951,-0.64618 -28.90532,-3.67321 -56.96517,-3.41873 -113.92217,1.03317 -41.85077,3.27116 -46.77742,3.53987 -63.184336,3.4462 -6.950278,-0.0397 -13.475874,-0.13765 -14.501325,-0.21771 z m 44.546851,-15.87538 c 9.96893,-0.6344 18.50487,-1.45439 43.08258,-4.13862 33.07068,-3.6118 36.82349,-3.88867 53.03341,-3.9127 17.54001,-0.026 24.53046,0.81449 34.55279,4.15449 2.36895,0.78946 4.38822,1.35434 4.48727,1.25529 0.48467,-0.48467 -8.92463,-21.21776 -16.56704,-36.50493 -5.60535,-11.21242 -10.27068,-20.08447 -19.67106,-37.40842 -3.99246,-7.35771 -7.14313,-13.49356 -7.00148,-13.63521 0.14166,-0.14165 3.84796,-0.50404 8.23623,-0.80532 13.42775,-0.92188 22.74503,-2.43529 30.76647,-4.9974 10.72742,-3.42643 18.10933,-8.927334 20.47892,-15.260629 2.84436,-7.602229 -1.06562,-22.470414 -8.30945,-31.597738 -3.04382,-3.83525 -8.37681,-7.537399 -9.39209,-6.519957 -0.16029,0.16064 -0.29144,4.517891 -0.29144,9.68278 0,8.65772 -0.0676,9.536244 -0.8667,11.255167 -1.22342,2.631854 -2.88125,4.45404 -5.72382,6.291282 -5.95246,3.847258 -16.11112,5.348918 -40.43521,5.977155 l -10.56524,0.272875 -5.60426,-5.752749 c -6.58046,-6.754813 -10.67779,-11.485035 -19.87314,-22.942813 -9.99288,-12.45155 -12.8149,-14.925021 -17.018,-14.916127 -4.12752,0.0087 -8.68686,4.208905 -17.46939,16.093191 -10.67621,14.446759 -12.59284,16.87645 -16.07382,20.376583 -2.03053,2.041713 -4.37482,3.959435 -5.51467,4.511229 -1.93458,0.936516 -2.20574,0.954955 -11.1765,0.760109 C 91.825786,86.294841 87.645251,85.984118 83.52465,85.329727 76.001649,84.135008 62.447831,80.715507 59.601594,79.294165 56.730251,77.860286 54.465609,75.705875 53.063951,73.074741 51.989669,71.058146 51.96036,70.810543 51.96036,63.752462 v -7.250664 l -0.969767,-0.137317 c -2.27607,-0.322283 -8.890948,5.578862 -12.744638,11.369513 -7.740098,11.630473 -7.885313,23.679789 -0.371028,30.786485 4.655537,4.403011 12.892234,7.137031 29.415402,9.763911 16.727623,2.65937 19.643787,3.15818 22.166307,3.79154 3.04734,0.76513 5.375575,1.83422 6.22596,2.85887 0.853221,1.02807 -0.127034,3.51057 -8.443093,21.38237 -13.192458,28.35151 -18.901742,42.60581 -22.455529,56.0644 -1.650072,6.24902 -1.718785,7.08516 -0.630117,7.66779 1.241547,0.66445 10.19934,2.75566 14.116046,3.2954 9.179141,1.26493 24.947187,1.62897 37.089027,0.85628 z"
         id="path116"
         inkscape:label="contorno interno"
         sodipodi:nodetypes="sssssssssscssssssssssssssssssssssssssssssssssssssssscsscsscsssssssscsssssssssss" /></g><g
       id="g107"
       inkscape:label="cara"
       style="display:inline"
       transform="matrix(1.4616253,0,0,1.4616253,-7.4753896,-98.483557)"><path
         style="display:inline;opacity:1;fill:#ffffff;fill-opacity:1;fill-rule:evenodd;stroke:none;stroke-width:1.22784;stroke-dasharray:none;stroke-dashoffset:0;stroke-opacity:1"
         d="m 82.152783,139.20108 c -0.485992,-8.34601 3.85155,-16.42489 10.457079,-19.47684 10.095908,-4.66459 22.732998,-1.91132 28.081558,4.33727 6.38395,7.45821 4.74757,22.69588 -0.30974,27.4264 -2.57308,2.40682 -5.39114,3.21164 -12.68395,3.62245 -6.23126,0.71087 -24.541821,1.3175 -25.544947,-15.90928 z m 26.873487,6.36118 c 4.31449,-2.06612 6.89711,-6.22203 6.65301,-10.7059 -0.4673,-8.58354 -12.67916,-12.28604 -19.487702,-8.83589 -13.062128,6.61909 0.620664,25.39085 12.834692,19.54179 z"
         id="path102"
         inkscape:label="globo ocular"
         sodipodi:nodetypes="ssssssssss" /><path
         style="opacity:1;fill:#000000;fill-opacity:1;fill-rule:evenodd;stroke:none;stroke-width:0.337676;stroke-dasharray:none;stroke-dashoffset:0;stroke-opacity:1"
         d="m 102.98743,146.58731 c -1.35262,-0.15291 -2.72441,-0.56106 -4.080297,-1.21404 -4.674532,-2.25118 -7.986738,-7.02247 -7.984146,-11.50129 0.0019,-3.31421 1.851282,-6.06854 5.232602,-7.79313 3.671326,-1.87251 8.952141,-1.72263 13.241981,0.37584 1.55381,0.76008 2.56962,1.48514 3.63756,2.59641 1.31292,1.36618 2.08437,2.80777 2.46775,4.61145 0.19115,0.89929 0.19183,2.55933 10e-4,3.61367 -0.83686,4.63512 -4.68328,8.35057 -9.55288,9.2276 -0.65047,0.11715 -2.26415,0.1626 -2.96403,0.0835 z m 3.2193,-9.30186 c 0.67692,-0.2703 1.16749,-0.61966 1.40322,-0.9993 0.40403,-0.65068 0.26383,-1.69827 -0.34292,-2.56225 -1.43897,-2.04902 -4.6353,-2.99811 -5.99126,-1.77898 -0.43133,0.3878 -0.59755,0.78609 -0.59519,1.4261 0.002,0.58087 0.12629,1.0412 0.43321,1.60642 0.61054,1.12433 1.69218,2.03547 2.89126,2.43551 0.27303,0.0911 0.49985,0.11257 1.02107,0.0967 0.5761,-0.0175 0.74168,-0.049 1.18061,-0.22423 z"
         id="path114"
         inkscape:label="pupila" /><path
         style="display:inline;opacity:1;fill:#ffffff;fill-opacity:1;fill-rule:evenodd;stroke:none;stroke-width:1.22784;stroke-dasharray:none;stroke-dashoffset:0;stroke-opacity:1"
         d="m 102.9134,136.87081 c -1.84489,-1.16999 -2.76581,-3.38401 -1.91365,-4.60065 1.55459,-2.21948 6.83689,0.22374 6.83689,3.16227 0,0.79771 -0.4777,1.35279 -1.54966,1.80068 -1.18378,0.49461 -2.19334,0.38619 -3.37358,-0.3623 z"
         id="path103"
         inkscape:label="iris"
         sodipodi:nodetypes="sssss" /><path
         style="display:inline;opacity:1;fill:#ffffff;fill-opacity:1;fill-rule:evenodd;stroke:none;stroke-width:0.613919;stroke-dasharray:none;stroke-dashoffset:0;stroke-opacity:1"
         d="m 91.834807,170.79076 c -4.776772,-0.007 -5.438408,7.72219 -12.447066,11.19512 -10.575988,0 -10.408972,-19.09815 -10.292045,-21.21418 4.902531,-0.72177 2.073595,8.10043 7.639985,10.90104 6.228761,3.13387 10.462964,-7.28148 10.847287,-8.26762 0.465577,-1.19463 2.882454,-1.98503 4.737065,-1.54918 3.508332,0.8245 6.912982,4.85334 7.418949,8.77911 0.496808,3.85467 2.083788,6.12618 6.109668,2.31535 3.80118,-3.55559 2.96485,-13.3931 9.77888,-6.91935 3.10946,2.71322 7.82677,14.61738 11.83032,8.79044 2.98729,-4.34782 3.44737,-11.3993 5.2694,-12.78902 1.31289,-1.0014 2.83177,0.71258 3.2208,3.63451 -0.59178,4.36407 -2.70257,9.78048 -4.17957,14.12072 -4.76766,12.33752 -14.99418,-5.55224 -18.88895,-6.86294 -3.82947,-0.98266 -6.33964,9.65297 -7.68535,12.23679 -5.468159,9.36275 -6.992089,-13.84945 -13.359373,-14.37079 z"
         id="path101"
         inkscape:label="boca"
         sodipodi:nodetypes="ccsssssssssssssc" /></g><g
       id="g116"
       style="display:inline;opacity:1"
       transform="matrix(1.316217,0,0,1.316217,5.5393257,-89.312921)"
       inkscape:label="corona"><path
         style="display:inline;fill:#ffcc00;fill-opacity:1;stroke:none;stroke-width:1.5;stroke-dasharray:none;stroke-dashoffset:0"
         d="m 83.423152,113.57222 c -19.235071,-1.59464 -5.96886,-36.025783 1.493682,-29.377018 7.497288,6.995319 9.226012,-2.863178 17.930246,-8.178458 4.58627,-2.702331 13.47589,11.289183 15.77428,7.403678 9.73201,-14.044543 27.3665,28.571908 9.07779,28.006218 0,0 -29.767496,1.96289 -44.275998,2.14558 z m 37.711988,-8.01235 c 6.76258,0.81766 4.75883,-13.048363 0.76496,-12.082635 -2.03365,1.320571 -3.69892,5.339247 -6.45614,3.618289 -6.20236,-3.871294 -10.00778,-15.806648 -17.069143,-6.418568 -1.873888,2.428002 -3.470012,5.35567 -6.245239,6.846992 -2.979928,0.981683 -4.28631,-2.65528 -6.552715,-3.432185 -3.190455,1.224895 -2.468979,9.462797 2.637286,12.808277 10.99452,0.55569 21.953921,-0.84129 32.920991,-1.34017 z"
         id="path112-2"
         inkscape:label="corona"
         sodipodi:nodetypes="ccccccccsccccc" /><path
         style="display:inline;fill:none;stroke:#ffffff;stroke-width:2.20003;stroke-linecap:butt;stroke-linejoin:miter;stroke-dasharray:none;stroke-opacity:1"
         d="m 87.542984,110.23269 c 11.927901,-0.39418 26.019706,-1.02087 37.787286,-1.70029 9.66698,-1.38353 2.44964,-26.632324 -3.33881,-20.215634 -5.05567,5.941215 -8.39576,0.751882 -12.1821,-3.141409 -3.16789,-3.257374 -6.64817,-5.607511 -11.70695,0.227448 -7.681757,8.787744 -9.590808,4.860157 -14.341243,3.988469 -6.61752,0.776629 -7.679406,21.236226 3.781817,20.841416 z"
         id="path113-4"
         inkscape:label="luz corona"
         sodipodi:nodetypes="cccsccc" /></g></g></svg>
